<?xml version="1.0" encoding="utf-8"?>
<!-- Generator: Adobe Illustrator 22.1.0, SVG Export Plug-In . SVG Version: 6.00 Build 0)  -->
<svg version="1.1" id="Layer_1" xmlns="http://www.w3.org/2000/svg" xmlns:xlink="http://www.w3.org/1999/xlink" x="0px" y="0px"
	 viewBox="0 0 32 32" style="enable-background:new 0 0 32 32;" xml:space="preserve">
<style type="text/css">
	.st0{fill:#FFFFFF;}
</style>
<g id="whatsapp">
	<g>
		<path class="st0" d="M28,1c1.7,0,3,1.3,3,3v24c0,1.7-1.3,3-3,3H4c-1.7,0-3-1.3-3-3V4c0-1.7,1.3-3,3-3H28 M28,0H4C1.8,0,0,1.8,0,4
			v24c0,2.2,1.8,4,4,4h24c2.2,0,4-1.8,4-4V4C32,1.8,30.2,0,28,0L28,0z"/>
	</g>
	<path class="st0" d="M15.2,16.5c-0.5-0.5-1-1.1-1.3-1.6c0-0.1-0.1-0.3,0-0.4c0.2-0.3,0.3-0.3,0.5-0.6c0.2-0.2,0.3-0.4,0.2-0.5
		l-0.8-2.1c-0.1-0.1-0.3-0.2-0.5-0.2c-0.2,0-0.4,0-0.6,0c-0.4,0.1-1.1,1.1-1.2,1.8c-0.2,1.5,1.2,3.6,2.6,4.8c1.4,1.3,3.5,2.5,5,2.1
		c0.7-0.2,1.6-1,1.7-1.4c0-0.2,0-0.4,0-0.6c0-0.3-0.1-0.4-0.2-0.5l-1.8-0.8c-0.2-0.1-0.3,0-0.5,0.2c-0.2,0.3-0.3,0.4-0.5,0.7
		c-0.1,0.2-0.2,0.3-0.4,0.3c-0.2,0-0.4-0.1-0.4-0.1C16.4,17.5,15.7,17,15.2,16.5L15.2,16.5z M9.2,23l1-2.6c-1.2-1.3-1.9-3.1-1.9-5
		c0-4.2,3.4-7.6,7.6-7.6c4.2,0,7.6,3.4,7.6,7.6S20.2,23,16,23c-1.7,0-3.2-0.5-4.5-1.5L9.2,23z M7.9,20.4l-1.4,5.8l5.1-2.3
		c1.3,0.7,2.8,1.1,4.4,1.1c5.3,0,9.5-4.3,9.5-9.5c0-5.3-4.3-9.5-9.5-9.5c-5.3,0-9.5,4.3-9.5,9.5C6.5,17.2,7,18.9,7.9,20.4L7.9,20.4z
		"/>
</g>
</svg>
