<?xml version="1.0" encoding="UTF-8"?>
<svg width="274px" height="110px" viewBox="0 0 274 110" version="1.1" xmlns="http://www.w3.org/2000/svg" xmlns:xlink="http://www.w3.org/1999/xlink">
    <!-- Generator: Sketch 52.2 (67145) - http://www.bohemiancoding.com/sketch -->
    <title>Group 3</title>
    <desc>Created with Sketch.</desc>
    <defs>
        <polygon id="path-1" points="0 0 274 0 274 110 0 110"></polygon>
    </defs>
    <g id="Page-1" stroke="none" stroke-width="1" fill="none" fill-rule="evenodd">
        <g id="Group-3" transform="translate(137.000000, 55.000000) scale(-1, 1) translate(-137.000000, -55.000000) ">
            <mask id="mask-2" fill="white">
                <use xlink:href="#path-1"></use>
            </mask>
            <g id="Clip-2"></g>
            <path d="M78.6018063,18.9277994 C76.6925939,20.1502944 74.39715,21.825155 73.1978574,22.7545919 C71.2282963,24.2854793 68.6234284,26.5055641 66.9512216,28.286062 C65.8704318,29.4378481 64.1664049,31.2226055 63.8449111,32.7364546 C63.760423,33.1317422 63.9381772,33.9112424 63.9886507,34.1710758 C64.0413186,34.4360207 64.1126397,34.6864831 64.2081004,34.9437608 C64.6042071,36.0154671 65.4721306,36.9380887 66.5013497,37.6911797 C67.6304185,38.5166832 69.0513553,39.0968359 70.4316939,39.6250218 C71.8833537,40.1796171 73.3920704,40.6456134 74.8711614,41.1559092 C78.1552262,42.2906571 81.5994892,43.025006 85.0229046,43.8573248 C86.6062342,44.2440932 88.2619822,44.5558933 89.9045632,44.7339431 C91.0303402,44.9767383 92.0683373,44.7833541 93.0185545,44.1529386 C93.8842835,43.7031286 94.7511099,43.2550224 95.6179362,42.8060644 C97.8486424,41.4924148 99.9476788,40.062905 101.916143,38.5166832 C103.906551,36.9874997 105.747734,35.3577904 107.440789,33.6275554 C108.019039,32.9536924 108.596192,32.2815332 109.174442,31.608522 C109.987503,30.8707655 110.236578,30.064856 109.922765,29.1916453 C108.647762,28.6344943 107.282785,28.2443182 105.92878,27.8132503 C103.512639,27.043973 101.020788,26.4365592 98.6200081,25.6391688 C103.294287,24.8869297 107.999288,24.2326607 112.700998,23.6312102 C129.390148,21.4971685 146.402986,20.5438781 163.312683,20.8198978 C170.456868,20.9383137 177.607637,21.239039 184.717807,21.805561 C191.896007,22.4300131 199.000691,23.4028976 206.037345,24.66884 C213.145321,25.9484131 220.065668,27.6522388 226.714994,29.9915915 C232.696095,32.0966681 238.623432,34.540806 243.467784,38.0345006 C245.974997,39.8439634 248.191439,41.920075 250.027135,44.1606058 C251.686175,46.1838988 252.901927,48.4014279 253.353993,50.7731532 C253.659028,54.1714335 252.774646,57.6438303 251.148523,60.8061307 C250.697554,61.5174779 250.202695,62.2092312 249.672724,62.8856499 C249.455469,63.1182222 249.236019,63.3490905 249.013278,63.5774032 C248.769689,63.7963448 248.526099,64.0127306 248.278121,64.2282646 C247.719622,64.6712593 247.155636,65.1099944 246.585067,65.543618 C246.06936,65.9005695 245.54707,66.2524095 245.02039,66.599138 C243.009134,67.8156695 240.944112,68.974271 238.837395,70.0902768 C235.235128,71.9201856 231.549471,73.6606435 227.790297,75.287797 C223.614169,77.0955561 219.304177,78.7150424 214.94042,80.2305953 C207.461574,82.7633322 199.843378,85.0183455 192.07815,86.9709297 C183.93108,89.020632 175.666604,90.8028336 167.3736,92.4546926 C150.708589,95.7728931 133.789017,98.2034005 116.653287,99.4318588 C101.706568,100.504417 86.5799002,100.556384 71.6452508,99.3364445 C71.7429059,99.3441118 71.840561,99.3526309 71.9382161,99.3602981 C71.8372692,99.3526309 71.7352251,99.3441118 71.633181,99.3347407 C71.5091919,99.3245178 71.3863001,99.3151467 71.262311,99.3049238 C71.3764249,99.3142948 71.4894415,99.3228139 71.6035553,99.332185 C64.6799172,98.7435132 57.7771268,97.9844589 51.0038118,96.7048858 C47.8075269,96.1017315 44.6682989,95.3384176 41.5532104,94.523137 C38.4063017,93.6993373 35.3076719,92.7656408 32.3132807,91.6521907 C26.5494343,89.5104819 21.4494232,86.4257055 17.3994789,82.5852824 C15.4672243,80.7536698 13.8959645,78.7201539 12.7745765,76.519663 C11.6082013,74.2305732 10.9739917,71.7864353 10.6097052,69.3474088 C10.2673636,66.5369484 10.3233233,63.7418223 10.8862118,60.9475482 C11.46117,58.0893807 12.5408625,55.2780683 13.9969113,52.6149888 C15.0403946,50.8677155 16.256146,49.1945587 17.5980809,47.5767763 C18.5537844,46.4956989 19.558864,45.4435865 20.6067363,44.4153277 C21.2892249,43.7823565 21.9881722,43.1621639 22.702481,42.5513424 C23.4815274,41.9260384 24.2737409,41.3118092 25.0813158,40.708655 C26.2904836,39.8524826 27.5237909,39.0193118 28.782335,38.2082908 C30.9142888,36.8878259 33.1054941,35.626143 35.3592425,34.4351688 C42.6724039,30.7140135 50.5254114,27.630941 58.5013109,24.8639281 C65.0727322,22.6302126 71.796671,20.6895552 78.6018063,18.9277994 M160.655147,0.639786541 C143.811285,1.66634151 127.08044,3.85149794 110.655727,6.90219781 C102.577783,8.40156441 94.5920088,10.1837661 86.6918196,12.1729825 C78.7312816,14.1758296 70.9057053,16.4640675 63.2655639,19.117776 C55.989709,21.6462533 48.8257735,24.425193 42.0963484,27.7527645 C34.5033887,31.5045887 27.4425946,35.9302758 21.1169569,40.9011873 C17.7121948,43.5778974 14.5400493,46.4326573 11.637827,49.445873 C9.10428021,52.0765799 6.7945721,54.8759654 4.9577781,57.8389183 C3.18243001,60.7004935 1.83391159,63.7094497 0.949529291,66.8095605 C0.11891217,69.7231024 -0.130163242,72.6817957 0.0607579985,75.6566753 C0.250581991,78.6179243 0.858457665,81.5834329 2.06104203,84.4007087 C3.21644471,87.1131991 5.1772278,89.5454103 7.48693591,91.7518645 C9.81310275,93.9728013 12.569391,95.9475353 15.5528097,97.6249516 C18.5482981,99.3091833 21.8828364,100.60835 25.2667508,101.74395 C32.4241028,104.146344 39.9600055,105.866356 47.6012442,107.031773 C55.7000354,108.267047 63.9601222,109.046547 72.189486,109.526174 C88.8215789,110.496503 105.55791,109.918054 122.093445,108.324125 C138.576313,106.733604 154.817785,103.994704 170.867239,100.711432 C178.725733,99.1047242 186.47121,97.2390351 194.08392,95.0351366 C201.850245,92.7852348 209.525498,90.2661286 216.836465,87.2307631 C220.22038,85.8259588 223.531876,84.3035906 226.779731,82.7224404 C230.689228,80.8192671 234.536181,78.8113085 238.183435,76.6159292 C242.975119,73.7330561 247.444212,70.6048322 251.769566,67.3096333 C256.124545,63.9914328 260.20631,60.4483273 263.91501,56.6854283 C269.223498,51.3013392 273.453391,44.8319131 273.962514,37.9586803 C274.188548,34.9233149 273.384264,31.9552505 271.769115,29.2018683 C270.208827,26.5421964 267.969343,24.0622781 265.445671,21.9018271 C263.02185,19.8274194 260.116335,18.1099631 257.114264,16.5748162 C254.072691,15.0200752 250.84678,13.6595704 247.575882,12.4217411 C245.72263,11.7197649 243.833168,11.0816822 241.916274,10.4964181 C239.571454,8.84115143 236.784443,7.58628382 233.939278,6.52480042 C230.457708,5.22392952 226.801676,4.18885542 223.07542,3.39998414 C219.188966,2.57703633 215.205954,2.03010829 211.229525,1.53770267 C202.905798,0.505184313 194.446012,0.164419178 186.029019,0.036632252 C184.431425,0.0119267797 182.833831,0 181.236237,0 C174.367462,0 167.501978,0.223201164 160.655147,0.639786541" id="Fill-1" fill="#FFFF00" mask="url(#mask-2)"></path>
        </g>
    </g>
</svg>