<?xml version="1.0" encoding="UTF-8" standalone="no"?><!DOCTYPE svg PUBLIC "-//W3C//DTD SVG 1.1//EN" "http://www.w3.org/Graphics/SVG/1.1/DTD/svg11.dtd"><svg width="100%" height="100%" viewBox="0 0 154 27" version="1.1" xmlns="http://www.w3.org/2000/svg" xmlns:xlink="http://www.w3.org/1999/xlink" xml:space="preserve" xmlns:serif="http://www.serif.com/" style="fill-rule:evenodd;clip-rule:evenodd;stroke-linejoin:round;stroke-miterlimit:1.41421;"><rect id="Artboard1" x="0" y="0" width="153.566" height="26.031" style="fill:none;"/><g><g><path d="M24.878,23.535c-0.66,0.66 -1.39,1.125 -2.191,1.396c-0.801,0.27 -1.732,0.405 -2.792,0.405c-1.526,0 -2.714,-0.273 -3.563,-0.819c-0.85,-0.547 -1.372,-1.475 -1.567,-2.784l-0.503,-3.312c-0.227,-1.558 -0.53,-2.735 -0.909,-3.53c-0.379,-0.796 -0.958,-1.194 -1.737,-1.194l-1.509,0l0,7.646c0,0.833 0.059,1.439 0.178,1.818c0.119,0.379 0.338,0.639 0.658,0.779c0.319,0.141 0.83,0.228 1.534,0.26l0,0.666c-1.299,-0.065 -3.15,-0.098 -5.552,-0.098c-2.684,0 -4.659,0.033 -5.925,0.098l0,-0.666c0.714,-0.032 1.231,-0.119 1.55,-0.26c0.319,-0.14 0.536,-0.4 0.649,-0.779c0.114,-0.379 0.171,-0.985 0.171,-1.818l0,-16.492c0,-0.834 -0.06,-1.44 -0.179,-1.818c-0.119,-0.379 -0.338,-0.639 -0.657,-0.78c-0.319,-0.14 -0.831,-0.227 -1.534,-0.259l0,-0.666c1.266,0.065 3.176,0.098 5.73,0.098c0.909,0 1.921,-0.011 3.036,-0.033c1.114,-0.022 1.883,-0.032 2.305,-0.032c3.376,0 5.889,0.473 7.54,1.42c1.65,0.947 2.475,2.4 2.475,4.358c0,1.667 -0.622,3.087 -1.866,4.262c-1.245,1.174 -3.334,1.901 -6.266,2.183c2.261,0.13 3.974,0.544 5.137,1.242c1.164,0.698 1.875,1.728 2.135,3.092l0.698,3.458c0.162,0.811 0.354,1.374 0.576,1.688c0.222,0.314 0.528,0.471 0.917,0.471c0.401,0 0.742,-0.147 1.023,-0.439l0.438,0.439Zm-13.862,-10.503c1.082,0 1.923,-0.238 2.524,-0.714c0.6,-0.476 1.012,-1.115 1.233,-1.916c0.222,-0.801 0.333,-1.764 0.333,-2.889c0,-1.818 -0.249,-3.193 -0.746,-4.123c-0.498,-0.931 -1.315,-1.396 -2.452,-1.396c-0.508,0 -0.89,0.078 -1.144,0.235c-0.254,0.157 -0.428,0.436 -0.519,0.836c-0.092,0.4 -0.138,0.996 -0.138,1.786l0,8.181l0.909,0Z" style="fill:#fff;fill-rule:nonzero;"/><path d="M44.081,15.451c0.141,2.629 0.687,4.767 1.64,6.412c0.952,1.644 2.418,2.467 4.399,2.467c1.233,0 2.207,-0.287 2.922,-0.86c0.714,-0.574 1.071,-1.369 1.071,-2.387c0,-0.876 -0.198,-1.663 -0.593,-2.361c-0.395,-0.698 -0.928,-1.337 -1.599,-1.916c-0.67,-0.579 -1.558,-1.236 -2.662,-1.972c-1.342,-0.898 -2.405,-1.678 -3.189,-2.338c-0.785,-0.66 -1.434,-1.431 -1.948,-2.313c-0.514,-0.882 -0.771,-1.896 -0.771,-3.044c0,-1.385 0.376,-2.551 1.128,-3.498c0.752,-0.947 1.75,-1.647 2.995,-2.102c1.244,-0.454 2.613,-0.682 4.107,-0.682c1.277,0 2.31,0.119 3.1,0.358c0.79,0.238 1.553,0.562 2.289,0.973c0.314,0.174 0.546,0.295 0.698,0.366c0.151,0.07 0.297,0.105 0.438,0.105c0.206,0 0.363,-0.116 0.471,-0.349c0.108,-0.232 0.195,-0.603 0.26,-1.112l0.763,0c-0.109,1.591 -0.163,4.297 -0.163,8.117l-0.763,0c-0.086,-1.267 -0.376,-2.479 -0.868,-3.636c-0.493,-1.158 -1.161,-2.1 -2.005,-2.825c-0.844,-0.725 -1.818,-1.088 -2.922,-1.088c-1.006,0 -1.823,0.271 -2.451,0.812c-0.628,0.541 -0.941,1.299 -0.941,2.273c0,0.8 0.186,1.488 0.56,2.061c0.373,0.574 0.887,1.115 1.542,1.623c0.654,0.509 1.907,1.407 3.758,2.695c1.222,0.855 2.196,1.604 2.921,2.248c0.726,0.644 1.318,1.399 1.778,2.265c0.46,0.866 0.69,1.867 0.69,3.003c0,1.439 -0.406,2.654 -1.218,3.644c-0.811,0.99 -1.899,1.729 -3.262,2.216c-1.364,0.487 -2.884,0.73 -4.562,0.73c-1.363,0 -2.492,-0.111 -3.384,-0.332c-0.893,-0.222 -1.729,-0.523 -2.508,-0.901c-0.498,-0.314 -0.871,-0.471 -1.12,-0.471c-0.206,0 -0.363,0.114 -0.471,0.341c-0.108,0.227 -0.2,0.6 -0.276,1.12l-0.763,0c0.097,-1.688 0.146,-4.902 0.146,-9.642l0.763,0Z" style="fill:#fff;fill-rule:nonzero;"/><path d="M72.323,1.994c-0.715,0.032 -1.231,0.119 -1.551,0.259c-0.319,0.141 -0.535,0.401 -0.649,0.78c-0.114,0.378 -0.17,0.984 -0.17,1.818l0,16.492c0,0.833 0.059,1.439 0.178,1.818c0.119,0.379 0.338,0.639 0.658,0.779c0.319,0.141 0.83,0.228 1.534,0.26l0,0.666c-1.299,-0.065 -3.15,-0.098 -5.552,-0.098c-2.684,0 -4.659,0.033 -5.925,0.098l0,-0.666c0.714,-0.032 1.231,-0.119 1.55,-0.26c0.32,-0.14 0.536,-0.4 0.65,-0.779c0.113,-0.379 0.17,-0.985 0.17,-1.818l0,-16.492c0,-0.834 -0.059,-1.44 -0.178,-1.818c-0.12,-0.379 -0.339,-0.639 -0.658,-0.78c-0.319,-0.14 -0.83,-0.227 -1.534,-0.259l0,-0.666c1.266,0.065 3.241,0.098 5.925,0.098c2.402,0 4.253,-0.033 5.552,-0.098l0,0.666Z" style="fill:#fff;fill-rule:nonzero;"/><path d="M91.367,24.866c-0.054,-0.693 -0.144,-1.193 -0.268,-1.502c-0.125,-0.308 -0.306,-0.463 -0.544,-0.463c-0.173,0 -0.4,0.092 -0.682,0.276c-0.66,0.466 -1.269,0.847 -1.826,1.145c-0.557,0.297 -1.193,0.541 -1.907,0.73c-0.714,0.19 -1.521,0.284 -2.419,0.284c-2.511,0 -4.707,-0.476 -6.59,-1.428c-1.883,-0.952 -3.344,-2.335 -4.383,-4.148c-1.039,-1.812 -1.559,-3.968 -1.559,-6.468c0,-2.446 0.533,-4.61 1.599,-6.493c1.066,-1.883 2.549,-3.344 4.448,-4.383c1.899,-1.039 4.072,-1.559 6.518,-1.559c1.32,0 2.448,0.19 3.384,0.569c0.936,0.378 1.848,0.909 2.735,1.59c0.249,0.195 0.466,0.293 0.65,0.293c0.454,0 0.735,-0.661 0.844,-1.981l0.763,0c-0.087,1.569 -0.13,4.34 -0.13,8.311l-0.763,0c-0.108,-1.179 -0.263,-2.167 -0.463,-2.962c-0.2,-0.796 -0.506,-1.51 -0.917,-2.143c-0.411,-0.633 -0.974,-1.182 -1.688,-1.648c-1.017,-0.66 -2.045,-0.99 -3.084,-0.99c-1.591,0 -2.849,0.56 -3.774,1.68c-0.926,1.12 -1.57,2.519 -1.932,4.197c-0.363,1.677 -0.544,3.473 -0.544,5.389c0,1.915 0.181,3.712 0.544,5.389c0.362,1.677 1.006,3.076 1.932,4.196c0.925,1.12 2.183,1.68 3.774,1.68c1.039,0 2.067,-0.33 3.084,-0.99c0.714,-0.444 1.277,-0.99 1.688,-1.639c0.411,-0.65 0.717,-1.41 0.917,-2.281c0.2,-0.871 0.355,-1.967 0.463,-3.287l0.763,0c0,4.123 0.043,7.002 0.13,8.636l-0.763,0Z" style="fill:#fff;fill-rule:nonzero;"/><path d="M105.583,0.857c2.511,0 4.708,0.477 6.591,1.429c1.883,0.952 3.344,2.335 4.383,4.147c1.038,1.813 1.558,3.969 1.558,6.469c0,2.446 -0.533,4.61 -1.599,6.493c-1.066,1.883 -2.551,3.344 -4.456,4.383c-1.905,1.039 -4.074,1.558 -6.509,1.558c-2.511,0 -4.708,-0.476 -6.591,-1.428c-1.883,-0.952 -3.344,-2.335 -4.383,-4.148c-1.038,-1.812 -1.558,-3.968 -1.558,-6.468c0,-2.446 0.533,-4.61 1.599,-6.493c1.066,-1.883 2.549,-3.344 4.448,-4.383c1.899,-1.039 4.071,-1.559 6.517,-1.559Zm-0.13,0.601c-1.093,0 -2.05,0.495 -2.873,1.485c-0.822,0.99 -1.458,2.37 -1.907,4.14c-0.449,1.769 -0.674,3.795 -0.674,6.079c0,2.294 0.254,4.32 0.763,6.079c0.509,1.759 1.196,3.114 2.062,4.066c0.865,0.953 1.818,1.429 2.857,1.429c1.093,0 2.05,-0.495 2.873,-1.486c0.822,-0.99 1.458,-2.37 1.907,-4.139c0.449,-1.769 0.674,-3.796 0.674,-6.079c0,-2.294 -0.254,-4.321 -0.763,-6.079c-0.509,-1.759 -1.196,-3.114 -2.062,-4.067c-0.865,-0.952 -1.818,-1.428 -2.857,-1.428Z" style="fill:#fff;fill-rule:nonzero;"/><path d="M139.594,1.994c-0.693,0.151 -1.201,0.389 -1.526,0.714c-0.325,0.325 -0.544,0.82 -0.657,1.485c-0.114,0.666 -0.171,1.659 -0.171,2.979l0,17.694c-0.325,-0.033 -0.687,-0.049 -1.087,-0.049c-0.39,0 -0.807,0.016 -1.25,0.049l-14.723,-16.087l0,9.577c0,1.634 0.064,2.809 0.194,3.523c0.13,0.714 0.422,1.242 0.877,1.582c0.454,0.341 1.217,0.588 2.289,0.739l0,0.666c-0.888,-0.065 -2.132,-0.098 -3.734,-0.098c-1.169,0 -2.088,0.033 -2.759,0.098l0,-0.666c0.692,-0.151 1.204,-0.39 1.534,-0.714c0.33,-0.325 0.552,-0.82 0.665,-1.485c0.114,-0.666 0.171,-1.659 0.171,-2.979l0,-14.171c0,-0.834 -0.06,-1.44 -0.179,-1.818c-0.119,-0.379 -0.338,-0.639 -0.657,-0.78c-0.32,-0.14 -0.831,-0.227 -1.534,-0.259l0,-0.666c0.671,0.065 1.59,0.098 2.759,0.098c1.223,0 2.246,-0.033 3.068,-0.098l13.587,14.366l0,-7.857c0,-1.634 -0.065,-2.808 -0.195,-3.522c-0.13,-0.714 -0.419,-1.242 -0.868,-1.583c-0.449,-0.341 -1.21,-0.587 -2.281,-0.738l0,-0.666c0.898,0.065 2.137,0.098 3.717,0.098c1.18,0 2.1,-0.033 2.76,-0.098l0,0.666Z" style="fill:#fff;fill-rule:nonzero;"/><path d="M152.791,1.994c-0.714,0.032 -1.231,0.119 -1.55,0.259c-0.319,0.141 -0.536,0.401 -0.649,0.78c-0.114,0.378 -0.171,0.984 -0.171,1.818l0,16.492c0,0.833 0.06,1.439 0.179,1.818c0.119,0.379 0.338,0.639 0.657,0.779c0.319,0.141 0.831,0.228 1.534,0.26l0,0.666c-1.299,-0.065 -3.149,-0.098 -5.551,-0.098c-2.684,0 -4.659,0.033 -5.925,0.098l0,-0.666c0.714,-0.032 1.231,-0.119 1.55,-0.26c0.319,-0.14 0.535,-0.4 0.649,-0.779c0.114,-0.379 0.171,-0.985 0.171,-1.818l0,-16.492c0,-0.834 -0.06,-1.44 -0.179,-1.818c-0.119,-0.379 -0.338,-0.639 -0.657,-0.78c-0.32,-0.14 -0.831,-0.227 -1.534,-0.259l0,-0.666c1.266,0.065 3.241,0.098 5.925,0.098c2.402,0 4.252,-0.033 5.551,-0.098l0,0.666Z" style="fill:#fff;fill-rule:nonzero;"/></g><g><path d="M46.8,3.937c0.48,2.101 -0.407,4.096 -1.981,4.456c-1.574,0.36 -3.24,-1.051 -3.72,-3.152c-0.481,-2.101 0.406,-4.096 1.981,-4.456c1.574,-0.36 3.239,1.051 3.72,3.152" style="fill:#7c562f;fill-rule:nonzero;"/><path d="M45.531,4.227c0.267,1.166 -0.225,2.274 -1.099,2.473c-0.874,0.201 -1.798,-0.583 -2.065,-1.749c-0.266,-1.166 0.226,-2.274 1.1,-2.473c0.874,-0.2 1.798,0.583 2.064,1.749" style="fill:#603e20;fill-rule:nonzero;"/><path d="M19.686,3.937c-0.48,2.101 0.407,4.096 1.981,4.456c1.574,0.36 3.24,-1.051 3.72,-3.152c0.481,-2.101 -0.406,-4.096 -1.981,-4.456c-1.574,-0.36 -3.239,1.051 -3.72,3.152" style="fill:#7c562f;fill-rule:nonzero;"/><path d="M20.955,4.227c-0.267,1.166 0.225,2.274 1.099,2.473c0.874,0.201 1.798,-0.583 2.065,-1.749c0.267,-1.166 -0.226,-2.274 -1.099,-2.473c-0.874,-0.2 -1.799,0.583 -2.065,1.749" style="fill:#603e20;fill-rule:nonzero;"/><path d="M19.439,14.58c-0.86,8.614 6.863,11.302 14.193,11.302c7.329,0 15.681,-2.774 14.193,-11.302c-2.401,-13.76 -6.864,-14.431 -14.193,-14.431c-7.33,0 -12.813,0.601 -14.193,14.431" style="fill:#7c562f;fill-rule:nonzero;"/><path d="M41.194,6.613c0,0.436 0.354,0.79 0.79,0.79c0.437,0 0.791,-0.354 0.791,-0.79c0,-0.437 -0.354,-0.79 -0.791,-0.79c-0.436,0 -0.79,0.353 -0.79,0.79" style="fill-rule:nonzero;"/><path d="M41.964,6.213c0,0.167 0.134,0.301 0.3,0.301c0.166,0 0.301,-0.134 0.301,-0.301c0,-0.165 -0.135,-0.299 -0.301,-0.299c-0.166,0 -0.3,0.134 -0.3,0.299" style="fill:#fff;fill-rule:nonzero;"/><path d="M42.515,6.401c0,0.062 0.051,0.113 0.114,0.113c0.062,0 0.113,-0.051 0.113,-0.113c0,-0.063 -0.051,-0.114 -0.113,-0.114c-0.063,0 -0.114,0.051 -0.114,0.114" style="fill:#fff;fill-rule:nonzero;"/><path d="M24.748,6.613c0,0.436 0.354,0.79 0.791,0.79c0.436,0 0.79,-0.354 0.79,-0.79c0,-0.437 -0.354,-0.79 -0.79,-0.79c-0.437,0 -0.791,0.353 -0.791,0.79" style="fill-rule:nonzero;"/><path d="M25.518,6.213c0,0.167 0.135,0.301 0.3,0.301c0.166,0 0.301,-0.134 0.301,-0.301c0,-0.165 -0.135,-0.299 -0.301,-0.299c-0.165,0 -0.3,0.134 -0.3,0.299" style="fill:#fff;fill-rule:nonzero;"/><path d="M26.069,6.401c0,0.062 0.051,0.113 0.114,0.113c0.063,0 0.113,-0.051 0.113,-0.113c0,-0.063 -0.05,-0.114 -0.113,-0.114c-0.063,0 -0.114,0.051 -0.114,0.114" style="fill:#fff;fill-rule:nonzero;"/><path d="M31.01,19.742c0,0 -0.175,3.498 0.628,4.189c0.375,0.323 1.977,0 1.977,0l0,-4.189l-2.605,0Z" style="fill:#fff;fill-rule:nonzero;"/><path d="M36.372,19.742c0,0 0.174,3.498 -0.628,4.189c-0.375,0.323 -1.977,0 -1.977,0l0,-4.189l2.605,0Z" style="fill:#fff;fill-rule:nonzero;"/><path d="M41.884,15.831c-1.283,-6.833 -0.637,-12.427 -8.193,-12.427c-7.309,0 -7.23,6.354 -8.233,12.846c-0.964,6.234 6.042,4.712 7.805,4.234c0.012,-0.213 0.025,-0.481 0.034,-0.789l0,-1.896c-0.057,-1.617 -0.291,-3.327 -0.993,-3.76c-1.417,-0.873 -2.928,-2.596 -2.928,-2.596l4.325,0.377l4.324,-0.377c0,0 -1.51,1.723 -2.928,2.596c-0.702,0.433 -0.936,2.143 -0.993,3.76l0,1.896c0.01,0.309 0.022,0.577 0.034,0.79c1.919,0.424 8.912,1.563 7.746,-4.654" style="fill:#ad8b6c;fill-rule:nonzero;"/><path d="M34.104,17.799c0.058,-1.617 0.291,-3.327 0.993,-3.76c1.418,-0.873 2.928,-2.596 2.928,-2.596l-4.324,0.377l-4.325,-0.377c0,0 1.511,1.723 2.928,2.596c0.702,0.433 0.936,2.143 0.993,3.76l0,1.896c-0.009,0.308 -0.022,0.576 -0.034,0.789c0.252,-0.068 0.397,-0.114 0.397,-0.114c0,0 0.177,0.049 0.478,0.115c-0.012,-0.213 -0.024,-0.481 -0.034,-0.79l0,-1.896Z" style="fill:#8e6d51;fill-rule:nonzero;"/><path d="M38.979,9.218c0,-2.788 -2.367,-3.343 -5.288,-3.343c-2.921,0 -5.289,0.555 -5.289,3.343c0,2.788 2.368,5.048 5.289,5.048c2.921,0 5.288,-2.26 5.288,-5.048" style="fill:#281709;fill-rule:nonzero;"/></g></g></svg>