<?xml version="1.0" encoding="utf-8"?>
<!-- Generator: Adobe Illustrator 22.1.0, SVG Export Plug-In . SVG Version: 6.00 Build 0)  -->
<svg version="1.1" id="Layer_1" xmlns:figma="http://www.figma.com/figma/ns"
	 xmlns="http://www.w3.org/2000/svg" xmlns:xlink="http://www.w3.org/1999/xlink" x="0px" y="0px" viewBox="0 0 80.1 24"
	 style="enable-background:new 0 0 80.1 24;" xml:space="preserve">
<style type="text/css">
	.st0{fill:#FFFFFF;}
</style>
<title>Logo</title>
<g>
	<path class="st0" d="M9.5,23.6H7.8V16c0-1.7-1.3-3-3-3H2.6v10.6H0.9V0.7h3.9c2.6,0,4.8,2.1,4.8,4.8v2.8c0,1.6-0.8,3-2,3.9
		c1.2,0.9,2,2.3,2,3.9V23.6z M4.8,11.3c1.7,0,3-1.3,3-3V5.5c0-1.7-1.3-3-3-3H2.6v8.8H4.8z"/>
	<path class="st0" d="M12.4,4.8c0-2.4,2-4.4,4.4-4.4c2.4,0,4.4,2,4.4,4.4v14.8c0,2.4-2,4.4-4.4,4.4c-2.4,0-4.4-2-4.4-4.4V4.8z
		 M14.2,19.6c0,1.5,1.2,2.7,2.7,2.7s2.7-1.2,2.7-2.7V4.8c0-1.5-1.2-2.7-2.7-2.7s-2.7,1.2-2.7,2.7V19.6z"/>
	<path class="st0" d="M24.9,9.2c0,0-1-1.2-1-2.9V4.8c0-2.4,2-4.4,4.4-4.4c2.4,0,4.4,2,4.4,4.4v2.9L31,7.8V4.8c0-1.5-1.2-2.7-2.7-2.7
		s-2.7,1.2-2.7,2.7v1.5c0,1,0.6,1.7,0.6,1.7l5.4,6.4c0,0,1.1,1.3,1.1,2.9v2.2c0,2.4-2,4.4-4.4,4.4c-2.4,0-4.4-2-4.4-4.4v-3.4
		l1.8-0.2v3.6c0,1.5,1.2,2.7,2.7,2.7S31,21,31,19.6v-2.2c0-1-0.6-1.8-0.6-1.8L24.9,9.2z"/>
	<path class="st0" d="M35.6,23.6V0.7h1.8v22.9H35.6z"/>
	<path class="st0" d="M47.7,8.4V4.8c0-1.5-1.2-2.7-2.7-2.7s-2.7,1.2-2.7,2.7v14.8c0,1.5,1.2,2.7,2.7,2.7s2.7-1.2,2.7-2.7v-3.1h1.8
		v3.1c0,2.4-2,4.4-4.4,4.4c-2.4,0-4.4-2-4.4-4.4V4.8c0-2.4,2-4.4,4.4-4.4c2.4,0,4.4,2,4.4,4.4v3.4L47.7,8.4z"/>
	<path class="st0" d="M52.1,4.8c0-2.4,2-4.4,4.4-4.4c2.4,0,4.4,2,4.4,4.4v14.8c0,2.4-2,4.4-4.4,4.4c-2.4,0-4.4-2-4.4-4.4V4.8z
		 M53.9,19.6c0,1.5,1.2,2.7,2.7,2.7s2.7-1.2,2.7-2.7V4.8c0-1.5-1.2-2.7-2.7-2.7s-2.7,1.2-2.7,2.7V19.6z"/>
	<path class="st0" d="M64.2,0.7h2.1l5.4,17.4h0.1V0.7h1.8v22.9h-1.8L66,5.3H66v18.4h-1.8V0.7z"/>
	<path class="st0" d="M77,23.6V0.7h1.8v22.9H77z"/>
</g>
</svg>
